<svg width="19" height="16" viewBox="0 0 19 16" fill="none" xmlns="http://www.w3.org/2000/svg">
<path fill-rule="evenodd" clip-rule="evenodd" d="M-0.000411402 16C1.8034 14.708 4.69568 16.0956 5.83193 13.8416C5.98951 13.5233 6.07937 13.1757 6.09582 12.8209C6.11227 12.4662 6.05496 12.1118 5.92751 11.7803C5.82323 11.5194 5.6552 11.2888 5.43879 11.1096C5.33799 11.029 5.22895 10.9592 5.11348 10.9015C3.6288 10.1646 2.08091 11.196 1.25918 12.4432C0.503732 13.5887 0.17997 15.0194 -0.00195312 16H-0.000411402ZM8.33877 6.69414C9.30341 7.44255 10.0927 8.39287 10.6514 9.47849L18.3893 1.89938C18.878 1.43687 19.1601 1.04681 18.7439 0.337617C18.5793 0.148655 18.3499 0.0281931 18.101 -2.03769e-05C17.8423 -0.0044819 17.5905 0.0829237 17.3902 0.246655L8.33877 6.69414ZM5.74096 10.0859C6.17573 10.3203 6.77238 10.8953 6.91422 11.5228L10.1488 9.86701C9.56598 8.70455 8.82133 7.70859 7.80071 7.00249C6.73692 8.43166 6.95276 8.72459 5.74096 10.0859Z" fill="url(#paint0_linear_579_452)"/>
<defs>
<linearGradient id="paint0_linear_579_452" x1="-0.00195312" y1="7.9999" x2="18.9456" y2="7.9999" gradientUnits="userSpaceOnUse">
<stop offset="0.0104167" stop-color="#4010A1"/>
<stop offset="0.375" stop-color="#C84E89"/>
<stop offset="0.625" stop-color="#F15F79"/>
<stop offset="0.989583" stop-color="#F79100"/>
</linearGradient>
</defs>
</svg>
