<svg width="63" height="58" viewBox="0 0 63 58" fill="none" xmlns="http://www.w3.org/2000/svg">
<path d="M16.9121 20.4178H23.2878V39.6315C23.2878 41.5809 24.8437 43.1595 26.7607 43.1595H36.24C38.1569 43.1595 39.7129 41.581 39.7129 39.6315V20.4178H46.0864C47.1423 20.4178 48.0914 19.7719 48.4974 18.7807C48.8992 17.7935 48.6757 16.6523 47.9296 15.8944L33.3432 1.07462C32.3244 0.0417773 30.674 0.0417773 29.6531 1.07462L15.0691 15.8944C14.323 16.6523 14.0994 17.7916 14.5034 18.7807C14.9091 19.77 15.8562 20.4178 16.9121 20.4178Z" fill="url(#paint0_linear_213:1297)"/>
<path d="M59.8674 27.6191C58.1391 27.6191 56.737 29.0437 56.737 30.8013V44.107C56.737 48.093 53.543 51.3356 49.6192 51.3356H13.3806C9.45677 51.3356 6.26488 48.093 6.26488 44.107V30.8013C6.26488 29.0437 4.86064 27.6191 3.13244 27.6191C1.40218 27.6191 0 29.0437 0 30.8014V44.1072C0 51.6022 6.00241 57.7002 13.3806 57.7002H49.6192C56.9973 57.7002 63 51.6023 63 44.1072V30.8014C63 29.0437 61.5977 27.6191 59.8674 27.6191Z" fill="url(#paint1_linear_213:1297)"/>
<defs>
<linearGradient id="paint0_linear_213:1297" x1="14.3047" y1="21.7297" x2="48.6946" y2="21.7297" gradientUnits="userSpaceOnUse">
<stop offset="0.0104167" stop-color="#4010A1"/>
<stop offset="0.375" stop-color="#C84E89"/>
<stop offset="0.625" stop-color="#F15F79"/>
<stop offset="0.989583" stop-color="#F79100"/>
</linearGradient>
<linearGradient id="paint1_linear_213:1297" x1="0" y1="42.6596" x2="63" y2="42.6596" gradientUnits="userSpaceOnUse">
<stop offset="0.0104167" stop-color="#4010A1"/>
<stop offset="0.375" stop-color="#C84E89"/>
<stop offset="0.625" stop-color="#F15F79"/>
<stop offset="0.989583" stop-color="#F79100"/>
</linearGradient>
</defs>
</svg>
